<svg xmlns="http://www.w3.org/2000/svg" width="96" height="72" viewBox="0 0 96 72"><defs><linearGradient id="g" x1="0" y1="0" x2="0" y2="1"><stop offset="0" stop-color="#686b73"/><stop offset=".28" stop-color="#30333a"/><stop offset=".62" stop-color="#15171c"/><stop offset="1" stop-color="#030406"/></linearGradient><linearGradient id="top" x1="0" y1="0" x2="1" y2="1"><stop stop-color="#92959d"/><stop offset="1" stop-color="#25272d"/></linearGradient></defs><g stroke="#050608" stroke-width="2"><path d="M8 48 L37 42 50 58 18 65Z" fill="url(#g)"/><path d="M16 45 L37 42 45 50 22 54Z" fill="url(#top)"/><path d="M43 40 L72 34 85 50 53 57Z" fill="url(#g)"/><path d="M51 37 L72 34 80 42 57 46Z" fill="url(#top)"/><path d="M25 25 L55 19 68 35 36 42Z" fill="url(#g)"/><path d="M33 22 L55 19 63 27 40 31Z" fill="url(#top)"/></g><g fill="#c1c4cc" font-family="Arial" font-size="7" font-weight="700"><text x="27" y="51">BLACK</text><text x="62" y="43">BLACK</text><text x="44" y="29">BLACK</text></g></svg>