<svg xmlns="http://www.w3.org/2000/svg" viewBox="0 0 640 360">
<defs><linearGradient id="s" x2="0" y2="1"><stop stop-color="#8db5d4"/><stop offset="1" stop-color="#182636"/></linearGradient><linearGradient id="g"><stop stop-color="#909aa6"/><stop offset="1" stop-color="#3b4653"/></linearGradient></defs>
<rect width="640" height="360" fill="url(#s)"/><circle cx="520" cy="75" r="42" fill="#dbeeff" opacity=".7"/><path d="M0 240L120 145l75 70 95-125 125 145 70-88 155 93v120H0z" fill="#273948"/><path d="M0 270l110-70 95 55 95-70 100 60 115-45 125 70v90H0z" fill="#d7e1e7" opacity=".72"/>
<g fill="url(#g)" stroke="#202832" stroke-width="7"><rect x="225" y="150" width="190" height="130" rx="3"/><rect x="196" y="126" width="62" height="154"/><rect x="382" y="126" width="62" height="154"/><path d="M195 126h64l-10-37h-44zM381 126h64l-10-37h-44z"/><rect x="292" y="195" width="55" height="85" rx="26" fill="#1b2028"/></g><path d="M320 150v-53" stroke="#313842" stroke-width="7"/><path d="M320 97l64 20-64 23z" fill="#d4515f"/><path d="M0 315c145-25 255-22 340 0s190 20 300-4v49H0z" fill="#f3f6f8" opacity=".8"/></svg>
